<!DOCTYPE svg PUBLIC "-//W3C//DTD SVG 20010904//EN" "http://www.w3.org/TR/2001/REC-SVG-20010904/DTD/svg10.dtd">
<svg version="1.0" xmlns="http://www.w3.org/2000/svg" width="147px" height="69px" viewBox="0 0 1470 690" preserveAspectRatio="xMidYMid meet"><g fill="#ffffbf" stroke="none">
 </g>

<g fill="#d5d5aa" stroke="none">
 </g>

<g fill="#aae3aa" stroke="none">
 </g>

<g fill="#b6dbb6" stroke="none">
 </g>

<g fill="#d0fbd0" stroke="none">
 </g>

<g fill="#ff9b55" stroke="none">
 </g>

<g fill="#add49b" stroke="none">
 <path d="M215 331 c-7 -12 12 -24 25 -16 11 7 4 25 -10 25 -5 0 -11 -4 -15 -9z"/>
 <path d="M206 302 c-3 -6 1 -15 8 -21 8 -7 17 -8 20 -3 3 6 -1 15 -8 21 -8 7 -17 8 -20 3z"/>
 </g>

<g fill="#ffcb98" stroke="none">
 </g>

<g fill="#ffbfbf" stroke="none">
 </g>

<g fill="#f7c26c" stroke="none">
 <path d="M516 452 c-3 -6 1 -15 8 -21 8 -7 17 -8 20 -3 3 6 -1 15 -8 21 -8 7 -17 8 -20 3z"/>
 <path d="M56 82 c-3 -6 1 -15 8 -21 8 -7 17 -8 20 -3 3 6 -1 15 -8 21 -8 7 -17 8 -20 3z"/>
 </g>

<g fill="#ff7f23" stroke="none">
 </g>

<g fill="#fc9430" stroke="none">
 <path d="M615 673 c-22 -6 -36 -23 -29 -35 3 -5 11 -5 17 -1 7 4 17 8 22 8 6 1 9 5 8 10 -1 6 18 10 42 10 24 0 41 -3 39 -7 -9 -13 14 -17 25 -4 9 11 7 15 -11 20 -26 7 -83 6 -113 -1z"/>
 <path d="M761 656 c-7 -8 -8 -17 -3 -20 6 -3 15 1 21 8 7 8 8 17 3 20 -6 3 -15 -1 -21 -8z"/>
 <path d="M536 642 c-3 -6 1 -15 8 -21 8 -7 17 -8 20 -3 3 6 -1 15 -8 21 -8 7 -17 8 -20 3z"/>
 <path d="M496 611 c-4 -5 -2 -13 4 -16 8 -5 8 -11 0 -20 -17 -21 5 -27 24 -6 15 16 15 19 -3 35 -11 10 -21 13 -25 7z"/>
 <path d="M807 603 c-4 -6 0 -18 7 -28 8 -11 16 -14 19 -8 4 6 0 18 -7 28 -8 11 -16 14 -19 8z"/>
 <path d="M374 549 c-9 -10 -20 -17 -24 -16 -7 2 -10 -3 -10 -19 0 -4 6 -2 13 4 6 6 17 11 22 12 6 1 9 6 7 11 -1 6 7 5 19 -1 22 -12 54 -6 45 9 -12 18 -55 18 -72 0z"/>
 <path d="M521 546 c-7 -8 -8 -17 -3 -20 6 -3 15 1 21 8 7 8 8 17 3 20 -6 3 -15 -1 -21 -8z"/>
 <path d="M541 516 c-7 -8 -8 -17 -3 -20 6 -3 15 1 21 8 7 8 8 17 3 20 -6 3 -15 -1 -21 -8z"/>
 <path d="M561 486 c-7 -8 -8 -17 -3 -20 6 -3 15 1 21 8 7 8 8 17 3 20 -6 3 -15 -1 -21 -8z"/>
 <path d="M581 456 c-7 -8 -8 -17 -3 -20 6 -3 15 1 21 8 7 8 8 17 3 20 -6 3 -15 -1 -21 -8z"/>
 <path d="M136 432 c-3 -6 1 -15 8 -21 8 -7 17 -8 20 -3 3 6 -1 15 -8 21 -8 7 -17 8 -20 3z"/>
 <path d="M601 426 c-7 -8 -8 -17 -3 -20 6 -3 15 1 21 8 7 8 8 17 3 20 -6 3 -15 -1 -21 -8z"/>
 <path d="M541 396 c-7 -8 -8 -17 -3 -20 6 -3 15 1 21 8 7 8 8 17 3 20 -6 3 -15 -1 -21 -8z"/>
 <path d="M625 396 c-11 -8 -14 -16 -8 -19 6 -4 18 0 28 7 11 8 14 16 8 19 -6 4 -18 0 -28 -7z"/>
 <path d="M577 383 c-4 -6 0 -18 7 -28 8 -11 16 -14 19 -8 4 6 0 18 -7 28 -8 11 -16 14 -19 8z"/>
 <path d="M539 327 c-1 -4 -2 -13 -3 -19 0 -7 -7 -13 -13 -13 -7 0 -13 -3 -13 -7 0 -5 0 -11 0 -14 0 -4 6 -1 14 5 10 8 16 9 21 1 3 -6 11 -8 16 -4 6 3 5 12 -3 21 -7 9 -11 18 -10 20 2 3 1 7 -2 11 -3 3 -7 2 -7 -1z"/>
 <path d="M497 254 c-4 -4 -2 -13 5 -21 6 -8 7 -13 2 -11 -5 2 -9 -1 -9 -7 0 -11 34 -15 40 -4 7 10 -29 52 -38 43z"/>
 <path d="M475 192 c-3 -3 0 -11 6 -18 8 -10 16 -11 31 -3 11 6 17 13 14 17 -8 7 -44 10 -51 4z"/>
 <path d="M466 152 c-3 -6 1 -15 8 -21 8 -7 17 -8 20 -3 3 6 -1 15 -8 21 -8 7 -17 8 -20 3z"/>
 <path d="M279 64 c-1 -5 -1 -13 0 -17 1 -4 -8 -3 -19 3 -18 10 -24 7 -21 -12 0 -4 -12 -5 -27 -2 -18 3 -37 -2 -57 -17 -28 -19 -28 -20 -5 -14 34 10 69 10 105 1 28 -8 29 -8 10 7 -19 15 -19 15 6 10 21 -4 26 -1 24 16 -1 21 -14 41 -16 25z"/>
 </g>

<g fill="#faa140" stroke="none">
 <path d="M665 671 c-10 -17 12 -21 25 -6 10 12 10 15 -3 15 -9 0 -18 -4 -22 -9z"/>
 <path d="M566 658 c-7 -4 -12 -17 -11 -30 1 -13 6 -21 11 -18 5 3 8 11 6 18 -3 11 2 14 37 16 8 1 16 7 18 13 5 14 -37 14 -61 1z"/>
 <path d="M766 632 c-3 -5 3 -17 13 -26 11 -10 22 -13 25 -8 3 5 -3 17 -13 26 -11 10 -22 13 -25 8z"/>
 <path d="M395 560 c-4 -6 -3 -16 3 -22 6 -6 12 -6 17 2 4 6 3 16 -3 22 -6 6 -12 6 -17 -2z"/>
 <path d="M356 553 c-4 -5 -12 -8 -17 -8 -5 0 -8 -4 -6 -10 3 -12 36 -14 44 -2 7 12 -11 30 -21 20z"/>
 <path d="M436 551 c-6 -8 5 -20 31 -35 23 -13 22 12 -2 28 -13 9 -26 12 -29 7z"/>
 <path d="M247 504 c-15 -8 -27 -19 -27 -25 0 -6 -5 -7 -10 -4 -6 3 -13 -1 -16 -9 -3 -9 -10 -14 -15 -11 -4 3 -13 -4 -19 -15 -6 -11 -15 -18 -20 -15 -5 3 -11 1 -14 -4 -4 -5 -2 -12 3 -15 5 -4 12 -2 16 4 4 6 11 8 16 5 5 -4 12 1 15 9 3 9 10 13 15 10 5 -3 12 2 15 10 3 9 10 14 14 11 5 -3 13 2 17 10 5 8 20 17 33 20 21 4 51 24 40 26 -3 0 -12 2 -21 4 -8 1 -27 -4 -42 -11z"/>
 <path d="M806 501 c-10 -11 -13 -22 -8 -25 5 -3 17 3 26 13 10 11 13 22 8 25 -5 3 -17 -3 -26 -13z"/>
 <path d="M455 500 c-3 -5 -2 -10 2 -12 13 -7 33 -3 36 6 3 12 -31 17 -38 6z"/>
 <path d="M495 471 c-3 -6 4 -15 15 -21 11 -6 18 -15 15 -20 -3 -5 3 -14 14 -20 12 -6 22 -6 26 -1 3 6 -4 15 -15 21 -11 6 -18 15 -15 20 3 5 -3 14 -14 20 -12 6 -22 6 -26 1z"/>
 <path d="M761 443 c-6 -10 -11 -14 -11 -9 0 5 -8 1 -19 -8 -10 -9 -22 -16 -27 -14 -5 2 -11 -1 -14 -6 -8 -15 39 -14 51 1 6 7 15 10 20 8 4 -3 13 3 19 14 13 25 -5 38 -19 14z"/>
 <path d="M584 408 c-3 -4 -2 -9 3 -9 4 -1 13 -2 18 -3 6 0 20 -7 33 -14 27 -16 48 -7 32 14 -7 7 -15 13 -18 12 -4 0 -9 1 -12 2 -16 6 -52 5 -56 -2z"/>
 <path d="M83 377 c-12 -16 -11 -37 2 -37 6 0 10 3 10 8 0 4 4 12 8 19 10 16 -8 26 -20 10z"/>
 <path d="M39 348 c0 -2 -2 -17 -3 -35 -1 -17 -8 -39 -15 -47 -15 -18 -7 -51 9 -41 8 5 7 12 -2 23 -8 10 -9 13 -1 9 6 -4 15 -2 19 4 10 17 12 79 2 85 -4 3 -8 4 -9 2z"/>
 <path d="M518 293 c-7 -14 -3 -33 6 -33 12 -1 17 28 6 35 -5 3 -10 2 -12 -2z"/>
 <path d="M10 148 c0 -8 3 -18 8 -22 4 -4 7 -12 7 -17 0 -15 19 -11 21 5 1 8 -7 22 -17 32 -16 14 -19 15 -19 2z"/>
 <path d="M456 142 c-4 -4 -12 -7 -17 -7 -15 0 -11 -19 5 -21 18 -3 41 22 28 30 -5 3 -12 2 -16 -2z"/>
 <path d="M58 94 c-7 -7 28 -58 40 -60 4 0 15 -4 25 -9 10 -4 21 -5 24 -1 8 8 -7 23 -26 28 -8 2 -24 13 -35 26 -12 13 -24 20 -28 16z"/>
 <path d="M325 64 c-20 -13 -41 -23 -47 -21 -6 1 -13 -4 -15 -11 -7 -18 35 -11 69 12 15 10 34 19 43 20 22 3 24 19 3 22 -10 1 -34 -9 -53 -22z"/>
 <path d="M216 33 c-11 -11 -6 -23 9 -23 8 0 15 4 15 9 0 13 -16 22 -24 14z"/>
 <path d="M165 20 c-3 -5 3 -10 15 -10 12 0 18 5 15 10 -3 6 -10 10 -15 10 -5 0 -12 -4 -15 -10z"/>
 </g>

<g fill="#f9af52" stroke="none">
 <path d="M614 663 c4 -4 32 -9 61 -9 45 -1 61 -7 95 -34 22 -17 38 -35 35 -40 -3 -4 2 -13 9 -19 8 -7 17 -8 20 -3 3 6 -1 15 -9 22 -8 7 -13 16 -10 20 7 11 -42 53 -55 45 -6 -4 -9 -1 -8 7 2 10 -16 14 -72 16 -41 2 -71 -1 -66 -5z"/>
 <path d="M565 646 c-11 -8 -14 -16 -8 -19 6 -4 18 0 28 7 11 8 14 16 8 19 -6 4 -18 0 -28 -7z"/>
 <path d="M525 630 c-4 -6 -3 -16 3 -22 6 -6 12 -6 17 2 4 6 3 16 -3 22 -6 6 -12 6 -17 -2z"/>
 <path d="M496 591 c-4 -5 -2 -12 4 -16 6 -4 8 -10 5 -15 -3 -5 -1 -11 4 -14 5 -4 12 -2 15 3 4 5 2 12 -4 16 -6 4 -8 10 -5 15 3 5 1 11 -4 14 -5 4 -12 2 -15 -3z"/>
 <path d="M397 559 c-27 -16 -11 -28 28 -19 19 4 33 4 32 0 -2 -7 3 -10 20 -10 3 0 -2 9 -12 20 -20 22 -41 25 -68 9z"/>
 <path d="M293 524 c-10 -7 -15 -14 -10 -15 24 -5 34 -4 50 4 10 5 16 11 13 15 -12 11 -35 10 -53 -4z"/>
 <path d="M525 531 c-7 -12 12 -24 25 -16 11 7 4 25 -10 25 -5 0 -11 -4 -15 -9z"/>
 <path d="M813 517 c-12 -16 -11 -37 2 -37 6 0 10 3 10 8 0 4 4 12 8 19 10 16 -8 26 -20 10z"/>
 <path d="M485 500 c-3 -5 -2 -10 2 -12 13 -7 33 -3 36 6 3 12 -31 17 -38 6z"/>
 <path d="M545 501 c-7 -12 12 -24 25 -16 11 7 4 25 -10 25 -5 0 -11 -4 -15 -9z"/>
 <path d="M245 490 c-4 -6 -10 -8 -14 -5 -5 2 -16 -4 -25 -14 -10 -11 -13 -22 -8 -25 5 -3 17 3 27 14 10 11 21 17 26 15 4 -3 10 -1 13 4 4 5 2 12 -3 15 -5 4 -12 2 -16 -4z"/>
 <path d="M565 471 c-7 -12 12 -24 25 -16 11 7 4 25 -10 25 -5 0 -11 -4 -15 -9z"/>
 <path d="M761 446 c-19 -20 -28 -23 -42 -15 -19 10 -20 9 -23 -13 0 -7 -11 -13 -23 -14 -12 -1 -29 -4 -38 -7 -9 -4 -13 -3 -10 2 3 5 1 12 -4 15 -19 12 -20 -12 -2 -28 15 -14 24 -15 40 -7 11 6 24 10 28 9 4 -1 18 3 31 10 12 7 22 10 22 6 0 -4 9 1 20 11 11 10 17 21 15 25 -3 4 1 7 8 6 14 -1 23 17 10 21 -5 2 -20 -8 -32 -21z"/>
 <path d="M585 441 c-7 -12 12 -24 25 -16 11 7 4 25 -10 25 -5 0 -11 -4 -15 -9z"/>
 <path d="M535 430 c-4 -6 -3 -16 3 -22 6 -6 12 -6 17 2 4 6 3 16 -3 22 -6 6 -12 6 -17 -2z"/>
 <path d="M106 401 c-21 -23 -6 -36 20 -16 14 10 16 17 8 25 -7 7 -15 5 -28 -9z"/>
 <path d="M555 391 c-7 -12 12 -24 25 -16 11 7 4 25 -10 25 -5 0 -11 -4 -15 -9z"/>
 <path d="M560 345 c-19 -23 -1 -39 21 -19 10 9 16 21 13 25 -8 13 -20 11 -34 -6z"/>
 <path d="M55 341 c-7 -12 12 -24 25 -16 11 7 4 25 -10 25 -5 0 -11 -4 -15 -9z"/>
 <path d="M37 302 c-19 -21 -36 -103 -18 -86 6 6 13 21 16 34 2 12 12 31 20 40 9 10 12 21 7 24 -5 3 -16 -2 -25 -12z"/>
 <path d="M515 280 c-10 -11 -15 -20 -10 -20 4 0 2 -7 -5 -15 -7 -8 -9 -15 -5 -15 4 0 2 -7 -5 -15 -7 -8 -9 -15 -5 -15 5 0 0 -9 -9 -19 -12 -14 -14 -21 -6 -26 13 -8 30 5 33 26 2 8 6 20 10 27 5 6 5 12 1 12 -3 0 -1 7 6 15 7 8 9 15 5 15 -5 0 0 9 9 19 10 10 13 22 8 25 -5 3 -17 -3 -27 -14z"/>
 <path d="M11 159 c0 -16 17 -57 19 -49 8 26 6 41 -6 51 -11 9 -14 8 -13 -2z"/>
 <path d="M411 116 c-9 -10 -9 -16 -1 -21 17 -10 37 12 24 25 -8 8 -15 6 -23 -4z"/>
 <path d="M35 101 c-7 -12 12 -24 25 -16 11 7 4 25 -10 25 -5 0 -11 -4 -15 -9z"/>
 <path d="M359 79 c-14 -11 -34 -22 -45 -23 -21 -3 -22 -21 -1 -22 20 -1 68 26 62 35 -2 5 1 8 8 7 6 0 13 3 15 9 6 17 -12 14 -39 -6z"/>
 <path d="M86 62 c-3 -5 3 -17 14 -27 11 -10 20 -16 20 -13 0 3 17 2 38 -3 37 -9 128 -2 117 9 -3 3 -36 6 -74 6 -52 1 -74 6 -89 19 -11 10 -23 14 -26 9z"/>
 </g>

<g fill="#f9bb67" stroke="none">
 <path d="M541 636 c-25 -17 -46 -38 -47 -46 0 -20 16 -41 28 -34 5 3 5 11 -2 19 -8 10 -4 18 18 34 27 19 77 43 94 45 24 3 14 15 -12 14 -18 -1 -53 -15 -79 -32z"/>
 <path d="M693 663 c5 -4 12 -8 15 -8 4 -1 17 -6 29 -13 22 -12 43 0 23 13 -17 11 -76 18 -67 8z"/>
 <path d="M796 602 c-3 -5 0 -14 7 -20 17 -15 13 -63 -9 -101 -19 -32 -87 -77 -111 -73 -16 3 -26 -15 -13 -23 6 -4 17 -1 25 5 8 7 15 10 15 6 0 -4 17 2 38 13 36 18 71 57 77 85 1 6 5 19 10 29 4 9 4 25 -1 35 -4 9 -8 20 -8 24 -2 15 -24 30 -30 20z"/>
 <path d="M283 515 c-101 -52 -192 -127 -235 -194 -31 -50 -35 -76 -13 -84 17 -7 30 9 15 18 -14 8 6 46 23 42 7 -1 11 7 9 19 -6 41 148 159 263 203 41 15 57 32 37 39 -5 1 -50 -18 -99 -43z"/>
 <path d="M446 552 c-8 -13 63 -104 75 -96 5 3 -5 24 -23 47 -45 60 -45 60 -52 49z"/>
 <path d="M526 542 c-3 -5 6 -25 20 -45 14 -21 24 -43 22 -50 -2 -7 0 -12 3 -12 4 0 16 -8 26 -18 38 -34 31 -4 -14 64 -49 73 -49 74 -57 61z"/>
 <path d="M558 404 c-10 -10 21 -66 32 -59 14 9 12 17 -8 43 -10 13 -21 20 -24 16z"/>
 <path d="M536 311 c-10 -11 -13 -22 -8 -25 5 -3 17 3 26 13 10 11 13 22 8 25 -5 3 -17 -3 -26 -13z"/>
 <path d="M485 270 c-3 -5 8 -16 24 -25 18 -9 32 -11 36 -5 3 5 -8 16 -24 25 -18 9 -32 11 -36 5z"/>
 <path d="M499 236 c-1 -3 -2 -9 -3 -13 -1 -5 -7 -18 -14 -30 -7 -13 -8 -24 -3 -28 6 -3 15 4 21 15 6 11 8 20 4 20 -3 0 -1 6 5 14 8 10 9 16 1 21 -5 3 -11 4 -11 1z"/>
 <path d="M13 177 c5 -53 32 -111 46 -102 13 8 4 50 -9 47 -10 -2 -11 0 -2 11 13 16 6 28 -12 21 -8 -3 -11 6 -8 30 2 20 -1 37 -9 41 -9 6 -11 -4 -6 -48z"/>
 <path d="M441 136 c-13 -13 -18 -26 -13 -30 5 -3 19 5 31 18 13 13 18 26 13 30 -5 3 -19 -5 -31 -18z"/>
 <path d="M319 61 c-30 -15 -60 -26 -66 -24 -6 2 -14 -1 -18 -7 -7 -12 70 -9 82 3 3 4 12 2 20 -4 13 -11 14 -10 17 11 0 5 10 15 20 23 36 26 1 25 -55 -2z"/>
 <path d="M75 60 c-3 -5 4 -14 16 -21 27 -14 87 -24 76 -12 -5 4 -12 8 -15 8 -4 1 -21 9 -39 18 -18 10 -34 13 -38 7z"/>
 </g>

<g fill="#fd851a" stroke="none">
 <path d="M575 670 c-4 -6 -10 -8 -15 -5 -18 11 -19 -13 -1 -29 13 -11 21 -14 26 -7 3 6 3 11 -1 11 -4 0 1 9 11 20 16 17 16 20 2 20 -9 0 -19 -5 -22 -10z"/>
 <path d="M624 663 c3 -21 19 -20 22 2 1 8 -4 15 -11 15 -7 0 -12 -8 -11 -17z"/>
 <path d="M748 663 c-7 -14 -3 -33 6 -33 12 -1 17 28 6 35 -5 3 -10 2 -12 -2z"/>
 <path d="M496 609 c-14 -17 -23 -35 -20 -41 5 -7 12 -4 20 7 7 10 11 22 7 28 -3 6 -1 7 4 4 6 -4 16 0 22 7 7 9 8 17 2 20 -5 3 -21 -8 -35 -25z"/>
 <path d="M795 589 c-7 -10 5 -16 27 -15 10 1 18 6 18 11 0 12 -38 16 -45 4z"/>
 <path d="M335 560 c-9 -14 -101 -60 -108 -54 -3 3 -10 -3 -16 -14 -6 -11 -7 -22 -3 -26 3 -4 -6 -5 -21 -2 -20 3 -30 0 -37 -15 -6 -10 -8 -19 -4 -19 3 0 1 -6 -5 -14 -8 -10 -9 -16 -1 -21 10 -6 12 -5 14 18 0 6 14 12 29 12 15 0 31 6 36 13 5 8 11 13 15 13 17 -2 19 0 8 11 -18 18 -15 30 5 19 12 -6 28 -4 55 10 21 11 43 18 49 17 6 -2 13 7 14 20 2 26 -19 49 -30 32z"/>
 <path d="M378 563 c-7 -14 -3 -33 6 -33 12 -1 17 28 6 35 -5 3 -10 2 -12 -2z"/>
 <path d="M447 563 c-4 -3 -1 -13 6 -21 8 -11 8 -14 0 -9 -6 4 -14 3 -18 -2 -6 -11 22 -28 43 -27 6 1 12 6 11 11 -1 6 -6 9 -11 7 -6 -2 -8 4 -5 12 6 16 -16 40 -26 29z"/>
 <path d="M804 556 c-8 -21 3 -49 16 -41 5 3 10 15 10 25 0 25 -18 36 -26 16z"/>
 <path d="M790 489 c-6 -10 -9 -19 -8 -20 27 -7 40 -4 48 12 6 10 9 19 8 20 -27 7 -40 4 -48 -12z"/>
 <path d="M484 479 c-5 -9 3 -13 20 -10 5 1 6 -5 3 -13 -7 -17 16 -40 27 -28 5 4 6 -2 4 -13 -2 -14 3 -19 17 -19 11 0 19 6 17 12 -1 7 4 12 12 10 8 -2 14 1 13 7 -1 5 -9 10 -17 11 -45 7 -55 13 -55 29 0 19 -31 30 -41 14z"/>
 <path d="M753 457 c-4 -8 -17 -19 -29 -25 -13 -7 -20 -20 -19 -34 1 -13 6 -21 11 -18 5 3 8 9 6 15 -2 5 0 7 3 3 11 -10 47 11 39 23 -3 6 0 9 7 7 8 -1 15 2 16 7 0 6 -3 9 -9 7 -5 -1 -7 2 -4 7 4 5 2 12 -3 16 -5 3 -13 -1 -18 -8z"/>
 <path d="M616 411 c-10 -11 -13 -22 -8 -25 5 -3 17 3 26 13 10 11 13 22 8 25 -5 3 -17 -3 -26 -13z"/>
 <path d="M671 401 c-8 -14 -7 -22 4 -31 8 -7 15 -11 16 -9 10 47 -3 73 -20 40z"/>
 <path d="M101 376 c-7 -8 -8 -17 -3 -20 6 -3 15 1 21 8 7 8 8 17 3 20 -6 3 -15 -1 -21 -8z"/>
 <path d="M565 370 c-3 -5 -2 -10 2 -12 13 -7 33 -3 36 6 3 12 -31 17 -38 6z"/>
 <path d="M65 361 c-6 -11 1 -15 18 -12 5 1 6 -3 3 -8 -4 -5 -2 -12 3 -15 19 -12 20 12 2 28 -13 11 -21 14 -26 7z"/>
 <path d="M54 316 c-3 -9 -10 -13 -15 -10 -16 9 -30 -46 -21 -80 5 -17 5 -44 1 -60 -4 -16 -5 -42 -2 -58 5 -27 7 -28 24 -12 14 13 16 21 8 36 -6 10 -15 16 -22 12 -7 -4 -5 1 4 12 21 24 21 54 0 78 -9 11 -11 16 -4 12 15 -8 58 70 43 79 -6 3 -13 -1 -16 -9z"/>
 <path d="M526 313 c-2 -3 -2 -12 1 -21 4 -9 2 -13 -4 -9 -6 4 -18 -2 -27 -12 -18 -20 -11 -31 18 -27 22 3 36 24 29 43 -3 8 -2 13 3 11 5 -2 11 1 14 6 5 10 -25 18 -34 9z"/>
 <path d="M474 228 c-6 -9 -4 -10 26 -11 11 -1 19 3 18 8 -4 12 -37 14 -44 3z"/>
 <path d="M464 198 c-6 -9 -4 -10 26 -11 11 -1 19 3 18 8 -4 12 -37 14 -44 3z"/>
 <path d="M450 156 c-6 -6 -15 -12 -20 -12 -6 -1 -13 -2 -16 -3 -4 0 -1 -8 7 -17 11 -14 10 -15 -7 -12 -11 2 -18 -2 -16 -10 1 -7 -5 -12 -15 -10 -10 2 -17 -2 -16 -9 1 -6 -4 -14 -12 -17 -8 -3 -14 -1 -12 3 1 5 -2 9 -8 9 -5 0 -9 -4 -7 -10 1 -5 -1 -7 -6 -4 -14 8 -36 -11 -37 -33 -1 -12 2 -21 5 -21 18 0 99 53 94 61 -3 6 5 8 20 5 19 -3 29 1 37 15 5 11 14 17 18 14 5 -2 14 2 21 10 12 14 7 20 -15 15 -5 -1 -6 2 -2 7 5 4 13 8 18 8 5 0 10 4 12 9 3 14 -29 16 -43 2z"/>
 <path d="M57 92 c-16 -18 -16 -20 0 -34 10 -8 24 -13 32 -10 8 2 11 0 7 -6 -8 -13 -1 -18 41 -26 23 -5 31 -4 29 6 -1 7 -6 13 -11 13 -6 0 -8 -4 -7 -10 2 -5 0 -6 -5 -2 -4 5 -8 12 -8 16 0 4 -14 21 -30 39 -30 32 -31 32 -48 14z"/>
 <path d="M249 49 c0 -2 -2 -12 -4 -22 -2 -9 3 -17 10 -17 7 0 12 7 11 15 -2 14 -15 33 -17 24z"/>
 </g>

<g fill="#8bc47f" stroke="none">
 <path d="M975 567 c-3 -7 -5 -52 -3 -98 l3 -84 52 -3 c47 -3 54 0 69 24 17 25 17 28 1 56 -16 28 -16 30 8 67 13 22 21 42 18 45 -17 17 -45 2 -70 -36 l-28 -43 -5 40 c-5 41 -34 62 -45 32z m80 -127 c0 -8 -8 -16 -17 -18 -13 -2 -18 3 -18 18 0 15 5 20 18 18 9 -2 17 -10 17 -18z"/>
 <path d="M1140 553 c-17 -22 -20 -38 -18 -97 3 -63 5 -71 23 -71 18 0 20 8 23 67 3 69 17 93 45 82 12 -4 17 -23 19 -77 3 -64 5 -72 23 -72 18 0 20 8 23 71 4 90 -18 124 -78 124 -30 0 -43 -6 -60 -27z"/>
 <path d="M1305 567 c-3 -7 -5 -52 -3 -98 3 -77 5 -84 25 -87 17 -2 28 9 55 53 l33 56 5 -53 c4 -40 9 -54 23 -56 15 -3 17 7 17 97 0 92 -2 101 -19 101 -12 0 -31 -19 -52 -52 l-34 -53 -5 50 c-4 37 -9 51 -23 53 -9 2 -19 -3 -22 -11z"/>
 <path d="M284 405 c-13 -20 -19 -22 -35 -12 -14 9 -24 9 -37 1 -26 -17 -27 -44 -3 -51 20 -5 20 -6 4 -18 -17 -13 -17 -15 6 -39 14 -14 32 -26 41 -26 9 0 21 -5 27 -11 9 -9 21 -8 48 5 45 22 44 51 -1 75 l-31 17 20 26 c17 23 18 30 7 43 -17 21 -27 19 -46 -10z"/>
 </g>

<g fill="#ff7607" stroke="none">
 <path d="M574 669 c-27 -10 -63 -32 -78 -48 -25 -26 -26 -32 -15 -52 12 -24 12 -24 -9 -5 -79 69 -393 -117 -458 -272 -18 -44 -18 -155 0 -190 35 -66 101 -102 190 -102 94 0 174 33 253 105 39 35 58 61 78 113 33 86 78 137 127 145 148 23 231 149 165 248 -48 73 -152 97 -253 58z m126 7 c0 -2 -15 -6 -34 -8 -19 -2 -32 0 -30 4 5 8 64 12 64 4z m23 -47 c66 -34 87 -96 51 -148 -17 -24 -86 -60 -115 -61 -9 0 -40 36 -72 83 l-55 84 30 18 c58 34 122 44 161 24z m-236 -176 c70 -97 68 -90 39 -128 -24 -32 -25 -35 -9 -45 17 -10 17 -10 -1 -8 -15 2 -24 -7 -36 -42 -45 -121 -229 -210 -345 -166 -25 10 -50 27 -56 38 -6 12 -17 17 -26 14 -9 -4 -21 1 -29 11 -14 19 -19 119 -6 126 4 3 5 -19 4 -49 -3 -33 1 -60 8 -69 20 -24 28 -8 17 34 -10 35 -7 46 22 105 38 77 104 139 205 192 137 72 152 71 213 -13z m-234 -436 c-6 -9 -90 -9 -96 1 -3 4 19 7 48 7 29 0 51 -3 48 -8z"/>
 </g>

<g fill="#dddcdb" stroke="none">
 <path d="M560 295 c-19 -23 -2 -38 35 -31 33 6 64 -13 36 -22 -6 -2 -25 -15 -41 -29 -55 -46 -27 -107 47 -101 30 2 38 7 38 23 0 17 -6 19 -32 17 -25 -2 -33 1 -33 12 0 9 4 16 9 16 5 0 23 12 40 26 56 47 30 104 -46 104 -23 0 -46 -6 -53 -15z"/>
 <path d="M721 291 c-21 -21 -35 -86 -29 -141 3 -30 7 -35 28 -35 24 0 25 3 30 75 4 67 7 75 25 75 18 0 21 -8 25 -75 5 -72 6 -75 30 -75 25 0 25 1 24 79 0 70 -3 81 -23 97 -30 25 -86 24 -110 0z"/>
 <path d="M874 297 c-3 -8 -4 -52 -2 -98 l3 -84 44 -3 c56 -4 82 17 80 67 0 20 2 48 6 63 10 40 -23 68 -80 68 -29 0 -48 -5 -51 -13z m81 -47 c0 -8 -8 -16 -17 -18 -13 -2 -18 3 -18 18 0 15 5 20 18 18 9 -2 17 -10 17 -18z m-7 -83 c2 -10 -3 -17 -12 -17 -10 0 -16 9 -16 21 0 24 23 21 28 -4z"/>
 <path d="M1041 291 c-21 -21 -35 -86 -29 -141 3 -30 7 -35 28 -35 24 0 25 3 30 75 4 67 7 75 25 75 18 0 21 -8 25 -75 5 -72 6 -75 30 -75 25 0 25 1 24 79 0 70 -3 81 -23 97 -30 25 -86 24 -110 0z"/>
 <path d="M1195 297 c-3 -7 -5 -52 -3 -98 l3 -84 52 -3 c47 -3 54 0 69 24 17 25 17 28 1 56 -15 27 -15 30 3 60 l19 32 3 -85 3 -84 46 -3 c29 -2 50 2 56 10 6 7 13 45 17 84 9 95 0 104 -95 103 l-70 -1 -27 -42 -27 -41 -5 40 c-5 41 -34 62 -45 32z m230 -47 c0 -8 -8 -16 -17 -18 -13 -2 -18 3 -18 18 0 15 5 20 18 18 9 -2 17 -10 17 -18z m-150 -80 c0 -8 -8 -16 -17 -18 -13 -2 -18 3 -18 18 0 15 5 20 18 18 9 -2 17 -10 17 -18z m143 -3 c2 -10 -3 -17 -12 -17 -10 0 -16 9 -16 21 0 24 23 21 28 -4z"/>
 </g>

<g fill="#ffffff" stroke="none">
 <path d="M0 473 l0 -216 50 71 c56 80 135 142 251 196 69 32 98 40 141 37 14 -1 142 -163 155 -197 3 -7 -11 -32 -30 -55 -19 -22 -38 -53 -42 -67 -22 -91 -73 -144 -205 -209 l-65 -33 608 0 607 0 0 120 c0 118 0 120 -20 103 -18 -16 -18 -18 -3 -36 19 -20 10 -47 -18 -55 -11 -4 -12 -2 -1 9 17 18 15 46 -5 57 -14 9 -14 11 5 21 26 14 28 28 5 53 -20 22 -1 24 21 2 15 -14 16 4 16 200 l0 216 -382 -1 c-224 0 -374 -4 -362 -9 12 -5 40 -26 63 -48 37 -35 41 -43 41 -88 0 -31 -7 -61 -20 -81 -22 -37 -98 -79 -150 -85 -34 -3 -37 -1 -102 97 -37 55 -67 105 -67 111 -1 16 38 48 94 78 l50 26 -318 0 -317 0 0 -217z m1003 4 c1 -43 -1 -77 -5 -77 -5 0 -8 37 -8 82 0 102 9 98 13 -5z m78 48 c-19 -33 -20 -38 -5 -60 18 -28 11 -65 -13 -65 -14 0 -13 3 3 21 19 21 18 21 -9 45 -16 13 -23 24 -17 24 5 0 18 16 27 35 9 19 21 35 26 35 5 0 0 -16 -12 -35z m93 21 c-14 -11 -20 -31 -25 -83 l-6 -68 -1 63 c-2 69 9 102 35 102 14 0 14 -2 -3 -14z m76 -6 c6 -11 9 -48 7 -83 l-3 -62 -2 67 c-2 57 -5 69 -24 82 -18 13 -19 16 -6 16 10 0 22 -9 28 -20z m95 -98 c6 2 27 29 47 60 54 83 68 78 68 -22 0 -47 -4 -80 -10 -80 -6 0 -10 26 -10 59 0 33 -4 62 -9 65 -5 4 -28 -23 -50 -59 -23 -36 -46 -65 -51 -65 -6 0 -9 34 -8 83 l1 82 6 -63 c3 -34 11 -61 16 -60z m-677 -184 c3 -22 -4 -32 -37 -53 -43 -26 -50 -42 -28 -64 10 -11 9 -13 -3 -9 -8 3 -16 16 -18 31 -3 21 4 31 37 52 44 27 51 48 24 65 -16 10 -16 10 2 8 13 -2 21 -12 23 -30z m79 14 c-12 -13 -17 -37 -17 -80 0 -40 -4 -62 -11 -62 -8 0 -10 20 -7 65 6 63 19 95 41 95 5 0 3 -8 -6 -18z m72 9 c18 -11 29 -151 12 -151 -7 0 -11 22 -11 62 0 43 -5 67 -17 80 -17 19 -8 24 16 9z m86 -71 c0 -44 -3 -80 -7 -80 -5 0 -8 36 -8 80 0 44 3 80 8 80 4 0 7 -36 7 -80z m73 68 c16 -16 15 -43 -3 -58 -11 -9 -12 -16 -4 -26 14 -17 8 -56 -11 -62 -12 -4 -13 -2 -2 9 17 18 15 46 -5 57 -14 9 -14 11 5 21 26 14 28 28 5 53 -18 20 -4 25 15 6z m89 -6 c-12 -13 -17 -37 -17 -80 0 -40 -4 -62 -11 -62 -8 0 -10 20 -7 65 6 63 19 95 41 95 5 0 3 -8 -6 -18z m72 9 c18 -11 29 -151 12 -151 -7 0 -11 22 -11 62 0 43 -5 67 -17 80 -17 19 -8 24 16 9z m84 -74 c1 -43 -1 -77 -5 -77 -5 0 -8 37 -8 82 0 102 9 98 13 -5z m78 48 c-19 -33 -20 -38 -5 -60 18 -28 11 -65 -13 -65 -14 0 -13 3 3 21 19 21 18 21 -9 45 -16 13 -23 24 -17 24 5 0 18 16 27 35 9 19 21 35 26 35 5 0 0 -16 -12 -35z m74 -45 c0 -44 -3 -80 -7 -80 -5 0 -8 36 -8 80 0 44 3 80 8 80 4 0 7 -36 7 -80z"/>
 <path d="M630 651 c-38 -12 -85 -38 -99 -55 -12 -14 -5 -29 45 -102 32 -47 61 -87 65 -89 3 -3 29 2 56 10 62 18 103 60 110 112 4 32 0 45 -23 72 -43 52 -96 69 -154 52z"/>
 <path d="M340 516 c-83 -34 -185 -102 -229 -153 -94 -106 -106 -201 -36 -273 69 -70 142 -76 259 -21 84 41 141 95 157 151 7 25 28 67 46 93 l34 48 -23 32 c-72 105 -110 147 -131 147 -12 -1 -47 -11 -77 -24z m-34 -141 c-28 -36 -26 -40 22 -60 31 -13 48 -43 17 -31 -8 3 -19 -2 -24 -12 -8 -13 -13 -14 -33 -5 -12 7 -33 15 -45 18 -13 4 -23 13 -23 22 0 9 6 13 14 10 20 -8 27 3 15 25 -6 11 -17 17 -25 14 -8 -3 -14 1 -14 10 0 13 7 15 35 10 29 -6 36 -3 51 19 9 13 20 22 26 19 5 -3 -2 -21 -16 -39z"/>
 <path d="M0 65 l0 -65 78 1 c58 0 71 3 54 10 -13 5 -48 34 -78 64 l-54 56 0 -66z"/>
 </g>

</svg>